<?xml version="1.0" encoding="UTF-8"?>
<svg id="Layer_1" xmlns="http://www.w3.org/2000/svg" version="1.1" xmlns:xlink="http://www.w3.org/1999/xlink" viewBox="0 0 900 600">
  <!-- Generator: Adobe Illustrator 29.1.0, SVG Export Plug-In . SVG Version: 2.1.0 Build 142)  -->
  <defs>
    <style>
      .st0 {
        fill: #e5bc0e;
      }

      .st1 {
        fill: url(#linear-gradient);
      }
    </style>
    <linearGradient id="linear-gradient" x1="85.1" y1="88.2" x2="863.5" y2="540" gradientUnits="userSpaceOnUse">
      <stop offset="0" stop-color="#898989"/>
      <stop offset=".4" stop-color="#6f6f6e"/>
      <stop offset="1" stop-color="#444443"/>
    </linearGradient>
  </defs>
  <rect class="st1" width="900" height="600"/>
  <g>
    <path class="st0" d="M306.9,210.2c-1.2-22.8-13.5-42.7-40.8-41.1-18.3,1.1-35.9,3.6-47.5,20.1-5.2,7.4-10.6,15.6-11.4,24.9-.5,5.8.2,12,1.2,17.7,9,49.6,85.3,46.7,96.4.2,1.8-7.1,2.5-14.6,2.1-21.8Z"/>
    <path class="st0" d="M137.2,481.3c-13.2-9.9-31.2-13.3-48.5-3.2-12.6,7.3-19.1,17.4-21.1,28.2-.7,2.4-1.2,4.7-1.5,7-8.2,35.4,33.7,78.9,72.6,48.6,28.9-22.6,25.7-60.3-1.5-80.6Z"/>
    <g>
      <path class="st0" d="M547.9,588.3c-7.1-34.2-61.6-52.7-87.5-16.9-11.2,11.3-12.7,26.3-7.6,39.7,1.8,7.5,5.5,13.9,10.4,19.1,19.4,20.3,53.4,26.2,72.8,1.9,9.9-12.4,17.9-27.9,11.9-43.8Z"/>
      <path class="st0" d="M547.9-11.7c-7.1-34.2-61.6-52.7-87.5-16.9-11.2,11.3-12.7,26.3-7.6,39.7,1.8,7.5,5.5,13.9,10.4,19.1,19.4,20.3,53.4,26.2,72.8,1.9,9.9-12.4,17.9-27.9,11.9-43.8Z"/>
    </g>
    <path class="st0" d="M849.7,498c-22.3,1.3-43.2,7.5-52.7,29.5-3.3,7.7-7.3,15.7-7,24.3,2,55.6,86.1,63.4,98.8,10.1,1.8-7.3-11.5-65.5-39.1-63.9Z"/>
    <path class="st0" d="M762,291.1c-8.2-6.1-19.1-1.9-27.3,2.2s-14.4,8.2-21.6,12.1c-6.6,3.6-13.7,7-19.8,11.5-18.3,13.5-2.5,45.1,10.6,56.4,17,14.6,41.6,15.9,59.6,2.1,30.6-23.6,27.2-63-1.5-84.3Z"/>
    <path class="st0" d="M863.3,170.3c-4.5-15.7-17.9-28.8-33.4-34.4-16.2-5.8-38.4-2.9-51.8,8.1-14.9,12.2-14.5,31.7-11.4,49,9.6,53.9,84.3,47.7,97-1.3,1.9-7.3,1.6-14.6-.4-21.4Z"/>
    <path class="st0" d="M598.4,86.1c-10.2,15.5-9.3,34.2-.9,50.4,2.6,5,6.2,9.5,10.4,13.2,14.2,12.6,35.5,17.1,53.2,9.5,14.3-6.1,23.9-19.8,26.7-34.7,19.6-48.9-58.1-86-89.4-38.4Z"/>
    <path class="st0" d="M509.8,413.3c-17.3,22.6-11.8,59,17.5,75.3,22.6,12.6,52.2,1.7,63.8-20.9,21.4-42-9.2-85-56.5-71-10.8,3.2-19,9.1-24.8,16.6Z"/>
    <path class="st0" d="M607.4,232.3c-.5-.4-1-.8-1.4-1.2-16.5-12.8-30.2-22.1-50.3-8.4-15.5,10.6-29,30.3-31.4,49.1-4.2,33.6,30.6,46.9,58.6,40.6,36.7-8.2,57.7-52.9,24.5-80.1Z"/>
    <path class="st0" d="M410.6,95c-36.5,1.3-74.1,41.8-43.1,74.3,19.8,20.9,54.4,20.7,74.6.5,20.5-20.4,18.4-53.1-6.9-68.6-7.5-4.6-16-6.5-24.6-6.2Z"/>
    <path class="st0" d="M291.3,23l-.2-.2c-14.2-16.9-38.3-25.6-61.4-12.3-13.5,7.8-20.5,18.7-22.7,30.2-5.7,18,1.5,34.2,14.2,44.8,15.4,16.8,40.3,24.1,64.2,5.5,9.6-7.4,15-16.3,17.2-25.4,6-16.8.1-32-11.3-42.6Z"/>
    <path class="st0" d="M419.1,440.6c-16.9-14.5-41.8-21.5-61.7-9.5-18.3,11.1-1,100.1,32.2,93.5,23.8-4.7,45.3-22.4,48.1-44.3,1.9-14.2-6.2-29-18.6-39.7Z"/>
    <path class="st0" d="M127,227c-12-4.3-25.4-2.1-38.7,11.4-17.3,17.5-26.9,47.7-7.9,67.6,21.3,22.3,86.9,27.5,89.6-14.9.5-8.9-2.7-17.9-6.5-25.8-8.4-17-21.4-32.8-36.5-38.3Z"/>
    <path class="st0" d="M281.5,407.6c-.3-.4-.7-.7-1-1-19.3-17.6-59.1-.6-78.1,10.3-23.8,13.7-8.2,41.1,5.4,55.8,16.3,17.6,42.7,25.2,68,5.8,15.5-11.9,19.7-55.8,5.7-70.9Z"/>
    <path class="st0" d="M137.9,110.2c-10.4-25.7-43.3-32.1-67-23.6-10.8,3.8-20.9,11.2-25.8,22-21.2,47.3,44.9,81.1,78.5,51,9.5-8.5,17.3-18.9,17.4-32.4,0-6.4-1.1-12.1-3.1-17Z"/>
    <path class="st0" d="M344.3,284.7c-10,14.9-9.2,34.1-.9,49.5,3.4,6.3,8.6,13.8,16.1,15.8,7.1,1.9,15.1.7,22.1-.6,15.7-3,45.6-10.5,52.3-26.8,19.6-48.2-58.3-84.7-89.6-37.9Z"/>
    <g>
      <path class="st0" d="M-29.2,431.8c23.4,12.4,54.1,1.7,66.1-20.6,9.6-17.8,10.4-40.4-3.3-56.5-10.5-12.4-44.2-25.8-58.5-11.3-3,3.1-5.1,7.1-6.9,10.9-9.3,18.9-23.2,63.8,2.6,77.5Z"/>
      <path class="st0" d="M870.8,431.8c23.4,12.4,54.1,1.7,66.1-20.6,9.6-17.8,10.4-40.4-3.3-56.5-10.5-12.4-44.2-25.8-58.5-11.3-3,3.1-5.1,7.1-6.9,10.9-9.3,18.9-23.2,63.8,2.6,77.5Z"/>
    </g>
    <path class="st0" d="M671.4,460.5c-10.7,1.7-20.2,8.3-26.2,22.2-21.5,49.5,45.4,84.9,79.4,53.3,16.3-15.2,24-31,6.5-48.1-5.9-5.8-12.3-11-19.1-15.6-12.5-8.6-27.5-13.9-40.6-11.8Z"/>
  </g>
</svg>