<?xml version="1.0" encoding="UTF-8"?>
<svg id="Layer_1" data-name="Layer 1" xmlns="http://www.w3.org/2000/svg" xmlns:xlink="http://www.w3.org/1999/xlink" viewBox="0 0 360.2 361.5">
  <defs>
    <style>
      .cls-1 {
        fill: #0e007f;
      }

      .cls-1, .cls-2 {
        isolation: isolate;
        opacity: .5;
      }

      .cls-2 {
        fill: url(#linear-gradient);
      }
    </style>
    <linearGradient id="linear-gradient" x1="68.38" y1="696.28" x2="294.98" y2="523.88" gradientTransform="translate(0 -430)" gradientUnits="userSpaceOnUse">
      <stop offset="0" stop-color="#6afff8"/>
      <stop offset="1" stop-color="#02a3d4"/>
      <stop offset="1" stop-color="#00a2d4"/>
    </linearGradient>
  </defs>
  <rect class="cls-2" x="1.5" width="358.6" height="361.5"/>
  <path class="cls-1" d="M.1,86.5l4.6-4.3c2.3,1.4,4.8,2.7,7.3,3.7l-1.2,10.2,2.7.9,5-9c2.6.7,5.3,1.1,8.1,1.3l2,10.1h2.8l2-10.1c2.7-.2,5.5-.6,8.1-1.3l5,9,2.7-.9-1.2-10.2c2.5-1,5-2.3,7.3-3.7l7.6,7,2.3-1.7-4.3-9.4c2.1-1.8,4-3.7,5.8-5.8l9.4,4.3,1.7-2.3-7-7.6c1.4-2.3,2.7-4.8,3.7-7.3l10.2,1.2.9-2.7-9-5c.7-2.7,1.1-5.4,1.3-8.1l10.1-2v-2.8l-10.1-2c-.2-2.7-.6-5.5-1.3-8.1l9-5-.9-2.7-10.2,1.2c-1-2.5-2.3-5-3.7-7.3l7-7.6-1.7-2.3-9.4,4.3c-1.8-2.1-3.7-4-5.8-5.8l1.5-3.3h2.2l-1.2,2.7c1.4,1.2,2.7,2.6,3.9,4l9.5-4.4,3.5,4.8-7.1,7.7c.9,1.6,1.8,3.3,2.5,5l10.4-1.2,1.8,5.7-9.1,5.1c.4,1.8.7,3.7.9,5.5l10.3,2v6l-10.2,2c-.2,1.9-.5,3.7-.9,5.5l9.1,5.1-1.8,5.7-10.4-1.2c-.8,1.7-1.6,3.4-2.5,5l7.1,7.7-3.5,4.8-9.5-4.4c-1.2,1.4-2.6,2.7-4,3.9l4.4,9.5-4.8,3.5-7.7-7.1c-1.6.9-3.3,1.8-5,2.5l1.2,10.4-5.7,1.8-5.1-9.1c-1.8.4-3.7.7-5.5.9l-2.1,10.3h-6l-2-10.2c-1.9-.2-3.7-.5-5.5-.9l-5.1,9.1-5.7-1.8,1.2-10.4c-1.7-.8-3.4-1.6-5-2.5L.2,88.9v-2.7.3h-.1ZM.1,54.2v-25.4l8.4,4.8c-1.8,5.1-1.8,10.6,0,15.7L.1,54.2ZM.1,15C6.8,7.5,16.1,2.7,26.1,1.7v17.2c-5.3.9-10.1,3.7-13.6,7.9L.1,19.6v-4.5H.1v-.1ZM.1,68v-4.5l12.4-7.2c3.5,4.1,8.3,6.9,13.6,7.9v17.2c-10-1-19.3-5.8-26-13.3H.1v-.1ZM34.1,81.3v-17.2c5.3-.9,10.1-3.7,13.6-7.9l14.9,8.6c-6.7,9.3-17.1,15.3-28.5,16.4h0v.1ZM66.6,57.9l-14.9-8.6c1.8-5.1,1.8-10.6,0-15.7l14.9-8.6c2.3,5.2,3.5,10.8,3.5,16.4s-1.2,11.3-3.5,16.4h0v.1ZM62.6,18.1l-14.8,8.6c-3.5-4.1-8.3-6.9-13.6-7.9V1.7c11.4,1.1,21.8,7.1,28.5,16.4h-.1ZM.1,51.9l6-3.5c-1.3-4.5-1.3-9.3,0-13.9L.1,31.1v20.8ZM.6,17.5l11.5,6.6c3.3-3.4,7.4-5.8,12-6.9V4C14.9,5.4,6.5,10.3.6,17.5h0ZM.6,65.5c5.9,7.3,14.3,12.1,23.5,13.6v-13.2c-4.6-1.1-8.8-3.5-12-7l-11.5,6.6h0ZM36.1,79c9.2-1.5,17.6-6.3,23.5-13.6l-11.5-6.6c-3.3,3.4-7.4,5.8-12,7v13.2ZM65.6,55.1c3.3-8.7,3.3-18.4,0-27.1l-11.5,6.6c1.3,4.5,1.3,9.3,0,13.9l11.5,6.6h0ZM59.6,17.5c-5.9-7.3-14.3-12.1-23.5-13.6v13.3c4.7,1.2,8.8,3.6,12,6.9l11.5-6.6ZM30.1,55.5c-7.7,0-14-6.3-14-14s6.3-14,14-14,14,6.3,14,14-6.3,14-14,14ZM30.1,53.5c6.6,0,12-5.4,12-12s-5.4-12-12-12-12,5.4-12,12,5.4,12,12,12ZM30.1,51.5c-5.5,0-10-4.5-10-10s4.5-10,10-10,10,4.5,10,10-4.5,10-10,10ZM30.1,49.5c4.4,0,8-3.6,8-8s-3.6-8-8-8-8,3.6-8,8,3.6,8,8,8ZM107.6,94.7l-1.6-6,5.7-2.1,2.6,5.6c1.1-.2,2.2-.4,3.3-.6l.5-6.2h6l.5,6.2c1.1,0,2.2.3,3.3.6l2.6-5.6,5.7,2.1-1.6,6c1,.5,2,1.1,2.9,1.7l4.4-4.4,4.6,3.9-3.5,5c.8.8,1.5,1.7,2.2,2.6l5.5-2.6,3,5.2-5,3.5c.5,1.1.9,2.1,1.2,3.2l6-.5,1.1,5.9-5.8,1.5v3.5l5.8,1.5-1.1,5.9-6-.5c-.3,1.1-.7,2.2-1.2,3.2l5,3.5-3,5.2-5.5-2.6c-.7.9-1.4,1.8-2.2,2.6l3.5,5-4.6,3.9-4.4-4.4c-1,.6-1.9,1.2-2.9,1.7l1.6,6-5.7,2.1-2.6-5.6c-1.1.2-2.2.4-3.3.6l-.5,6.2h-6l-.5-6.2c-1.1-.1-2.2-.3-3.3-.6l-2.6,5.6-5.7-2.1,1.6-6c-1-.5-2-1.1-2.9-1.7l-4.3,4.4-4.6-3.9,3.5-5c-.8-.8-1.5-1.7-2.2-2.6l-5.5,2.6-3-5.2,5-3.5c-.5-1.1-.9-2.1-1.2-3.2l-6,.5-1.1-5.9,5.8-1.5v-3.5l-5.8-1.5,1.1-5.9,6,.5c.3-1.1.7-2.2,1.2-3.2l-5-3.5,3-5.2,5.5,2.6c.7-.9,1.4-1.8,2.2-2.6l-3.5-5,4.6-3.9,4.3,4.4c1-.6,1.9-1.2,2.9-1.7ZM122.8,93.5l-.5-6.1h-2.3l-.5,6.1c-2.2,0-4.3.5-6.3,1.1l-2.5-5.5-2.2.8,1.6,5.8c-2,.9-3.8,1.9-5.6,3.2l-4.3-4.3-1.8,1.5,3.5,4.9c-1.6,1.5-2.9,3.1-4.1,4.9l-5.5-2.6-1.2,2,5,3.5c-1,1.9-1.7,3.9-2.2,6l-6-.6-.4,2.3,5.9,1.5c-.2,2.1-.2,4.3,0,6.4l-5.9,1.6.4,2.3,6.1-.6c.5,2.1,1.2,4.1,2.2,6l-5,3.5,1.2,2,5.5-2.6c1.2,1.8,2.6,3.4,4.1,4.9l-3.5,5,1.8,1.5,4.3-4.3c1.7,1.3,3.6,2.4,5.6,3.2l-1.6,5.9,2.2.8,2.5-5.5c2,.6,4.1,1,6.3,1.1l.5,6.1h2.3l.5-6.1c2.2-.1,4.3-.5,6.3-1.1l2.5,5.5,2.2-.8-1.6-5.9c2-.9,3.8-1.9,5.6-3.2l4.3,4.3,1.8-1.5-3.5-4.9c1.6-1.5,2.9-3.1,4.1-4.9l5.5,2.6,1.2-2-5-3.5c1-1.9,1.7-3.9,2.2-6l6,.6.4-2.3-5.9-1.5c.2-2.1.2-4.3,0-6.4l5.9-1.6-.4-2.3-6.1.6c-.5-2.1-1.2-4.1-2.2-6l5-3.5-1.2-2-5.5,2.6c-1.2-1.8-2.6-3.4-4.1-4.9l3.5-5-1.8-1.5-4.3,4.3c-1.7-1.3-3.6-2.4-5.6-3.2l1.6-5.8-2.2-.8-2.5,5.5c-2-.6-4.1-1-6.3-1.1h0ZM121.1,129.5c-4.4,0-8-3.6-8-8s3.6-8,8-8,8,3.6,8,8-3.6,8-8,8ZM121.1,127.5c3.3,0,6-2.7,6-6s-2.7-6-6-6h0c-3.3,0-6,2.7-6,6s2.7,6,6,6ZM121.1,109.5c-2.8,0-5-2.2-5-5s2.2-5,5-5,5,2.2,5,5-2.2,5-5,5ZM129.6,113c-2-1.9-2-5.1-.1-7.1s5.1-2,7.1,0h0c2,1.9,2,5.1.1,7.1s-5.1,2-7.1,0ZM133.1,121.5c0-2.8,2.2-5,5-5s5,2.2,5,5-2.2,5-5,5-5-2.2-5-5ZM129.6,130c1.9-2,5.1-2,7.1-.1s2,5.1.1,7.1h0c-1.9,2-5.1,2-7.1.1s-2-5.1-.1-7.1ZM121.1,133.5c2.8,0,5,2.2,5,5s-2.2,5-5,5-5-2.2-5-5,2.2-5,5-5ZM112.6,130c2,1.9,2,5.1,0,7.1s-5.1,2-7.1.1h0c-2-1.9-2-5.1,0-7.1s5.1-2,7.1-.1ZM109.1,121.5c0,2.8-2.2,5-5,5s-5-2.2-5-5,2.2-5,5-5,5,2.2,5,5ZM112.6,113c-1.9,2-5.1,2-7.1,0s-2-5.1,0-7.1,5.1-2,7.1,0,2,5.1,0,7.1h0ZM121.1,107.5c1.7,0,3-1.3,3-3s-1.3-3-3-3h0c-1.7,0-3,1.3-3,3s1.3,3,3,3ZM131,111.6c1.1,1.2,3,1.3,4.2.2,1.2-1.1,1.3-3,.1-4.2s-3-1.3-4.2-.2c-1.2,1.1-1.3,3-.1,4.2ZM135.1,121.5c0,1.7,1.3,3,3,3s3-1.3,3-3-1.3-3-3-3-3,1.3-3,3ZM131,131.4c-1.2,1.1-1.3,3-.2,4.2s3,1.3,4.2.1,1.3-3,.2-4.2-3-1.3-4.2-.1ZM121.1,135.5c-1.7,0-3,1.3-3,3s1.3,3,3,3,3-1.3,3-3-1.3-3-3-3h0ZM111.2,131.4c-1.1-1.2-3-1.3-4.2-.2s-1.3,3-.2,4.2,3,1.3,4.2.2,1.3-3,.2-4.2ZM107.1,121.5c0-1.7-1.3-3-3-3s-3,1.3-3,3,1.3,3,3,3,3-1.3,3-3ZM111.2,111.6c1.2-1.1,1.3-3,.2-4.2-1.1-1.2-3-1.3-4.2,0h0c-1.2,1.1-1.3,3-.2,4.2s3,1.3,4.2.2h0v-.2ZM240.6,104.7h0c.9,0,1.7.2,2.6.3l1.5-3.9,1.9-3.6,3.9,1v4.1l-.5,4.1c.8.3,1.6.6,2.4.9l2.4-3.4,2.8-3.1,3.5,1.9-1,4-1.5,3.9c.7.5,1.5,1,2.1,1.5l3.2-2.8,3.4-2.3,3,2.7-1.9,3.7-2.4,3.4c.6.6,1.2,1.3,1.8,2l3.7-1.9,3.9-1.5,2.3,3.3-2.7,3.1-3.1,2.8c.4.8.8,1.5,1.2,2.3l4-1,4.1-.5,1.4,3.7-3.4,2.4-3.7,2c.2.8.4,1.7.6,2.5h4.2l4.1.5.5,4-3.9,1.5-4.1,1v2.6l4.1,1,3.9,1.5-.5,4-4.1.5h-4.2c-.2.9-.4,1.7-.6,2.5l3.7,2,3.4,2.4-1.4,3.7-4.1-.5-4-1c-.4.8-.8,1.6-1.2,2.3l3.1,2.8,2.7,3.1-2.3,3.3-3.9-1.5-3.7-1.9c-.6.7-1.1,1.4-1.8,2l2.4,3.4,1.9,3.6-3,2.7-3.4-2.3-3.2-2.8c-.7.5-1.4,1-2.1,1.5l1.5,3.9,1,4-3.5,1.9-2.8-3.1-2.4-3.4c-.8.3-1.6.6-2.4.9l.5,4.1v4.1l-3.9,1-1.9-3.6-1.5-3.9c-.9.1-1.7.2-2.6.3l-.5,4.2-1,4h-4l-1-4-.5-4.2c-.9,0-1.7-.2-2.6-.3l-1.5,3.9-1.9,3.6-3.9-1v-4.1l.5-4.1c-.8-.3-1.6-.6-2.4-.9l-2.4,3.4-2.8,3.1-3.5-1.9,1-4,1.5-3.9c-.7-.5-1.4-1-2.1-1.5l-3.2,2.8-3.4,2.3-3-2.7,1.9-3.6,2.4-3.4c-.6-.6-1.2-1.3-1.8-2l-3.7,1.9-3.9,1.5-2.3-3.3,2.7-3.1,3.1-2.8c-.4-.8-.8-1.5-1.2-2.3l-4,1-4.1.5-1.4-3.7,3.4-2.4,3.7-2c-.2-.8-.4-1.7-.6-2.5h-4.2l-4.1-.5-.5-4,3.9-1.5,4.1-1v-2.6l-4.1-1-3.9-1.5.5-4,4.1-.5h4.2c.2-.9.4-1.7.6-2.5l-3.7-2-3.4-2.4,1.4-3.7,4.1.5,4,1c.4-.8.8-1.6,1.2-2.3l-3.1-2.8-2.7-3.1,2.3-3.3,3.9,1.5,3.7,1.9c.6-.7,1.1-1.4,1.8-2l-2.4-3.4-1.9-3.6,3-2.7,3.4,2.3,3.2,2.8c.7-.5,1.4-1,2.1-1.5l-1.5-3.9-1-4,3.5-1.9,2.8,3.1,2.4,3.4c.8-.3,1.6-.7,2.4-.9l-.5-4.1v-4.1l3.9-1,1.9,3.7,1.5,3.9c.9,0,1.7-.2,2.6-.3l.5-4.2,1-4h4l1,4,.5,4.2h0v-.2h0ZM226.3,108.1c-1.8.5-3.6,1.2-5.3,2l-3.5-5-1.4-1.5-.9.5.5,2,2.2,5.7c-1.6,1-3.2,2-4.7,3.2l-4.6-4-1.7-1.2-.8.7,1,1.8,3.5,5c-1.4,1.3-2.6,2.8-3.8,4.3l-5.4-2.8-1.9-.7-.6.8,1.4,1.6,4.5,4.1c-1,1.6-1.9,3.3-2.6,5l-5.9-1.4-2-.2-.4.9,1.7,1.2,5.4,2.9c-.6,1.8-1,3.6-1.4,5.5h-6.1l-2,.3v1c-.1,0,1.8.7,1.8.7l5.9,1.5c-.1,1.9-.1,3.8,0,5.6l-5.9,1.5-1.9.7v1c.1,0,2.2.2,2.2.2h6.1c.3,1.9.8,3.7,1.4,5.5l-5.4,2.9-1.7,1.2.4.9,2-.2,5.9-1.5c.8,1.7,1.6,3.4,2.6,5l-4.5,4.1-1.4,1.6.6.8,1.9-.7,5.4-2.8c1.2,1.5,2.4,3,3.8,4.3l-3.5,5-1,1.8.8.7,1.7-1.1,4.6-4c1.5,1.2,3,2.3,4.7,3.2l-2.2,5.7-.5,2,.9.5,1.4-1.5,3.5-5c1.7.8,3.5,1.5,5.3,2l-.7,6v2.1l1,.2,1-1.8,2.2-5.7c1.8.4,3.7.6,5.6.7l.8,6,.5,2h1l.5-2,.8-6c1.9,0,3.8-.3,5.6-.7l2.2,5.7,1,1.8,1-.2v-2.1l-.7-6c1.8-.5,3.6-1.2,5.3-2l3.5,5,1.4,1.5.9-.5-.5-2-2.2-5.7c1.6-1,3.2-2,4.7-3.2l4.6,4,1.7,1.1.8-.7-1-1.8-3.5-5c1.4-1.3,2.6-2.8,3.8-4.3l5.4,2.8,1.9.7.6-.8-1.4-1.6-4.5-4.1c1-1.6,1.9-3.3,2.6-5l5.9,1.4,2,.2.4-.9-1.7-1.2-5.4-2.9c.6-1.8,1-3.6,1.4-5.5h6.1l2-.3v-1c.1,0-1.8-.7-1.8-.7l-5.9-1.5c.1-1.9.1-3.8,0-5.6l5.9-1.5,1.9-.7v-1c-.1,0-2.2-.2-2.2-.2h-6.1c-.3-1.9-.8-3.7-1.4-5.5l5.4-2.9,1.7-1.2-.4-.9-2,.2-5.9,1.5c-.8-1.7-1.6-3.4-2.6-5l4.5-4.1,1.4-1.6-.6-.8-1.9.7-5.4,2.8c-1.2-1.5-2.4-3-3.8-4.3l3.5-5,1-1.8-.8-.7-1.7,1.2-4.6,4c-1.5-1.2-3-2.3-4.7-3.2l2.2-5.7.5-2-.9-.5-1.4,1.5-3.5,5c-1.7-.8-3.5-1.5-5.3-2l.7-6v-2.1l-1-.2-1,1.8-2.2,5.7c-1.8-.4-3.7-.6-5.6-.7l-.8-6-.5-2h-1l-.5,2-.8,6c-1.9,0-3.8.3-5.6.7l-2.2-5.7-1-1.8-1,.2v2.1l.7,6h0ZM220.5,113.7c4.8-2.6,10.2-4,15.6-4.2v6c-4.4,0-8.7,1.3-12.6,3.4l-3-5.2h0ZM223.3,114.5l1,1.7c3.1-1.4,6.4-2.3,9.8-2.6v-2c-3.7.3-7.4,1.3-10.8,2.9ZM218.7,114.7l3,5.2c-3.7,2.3-6.9,5.5-9.2,9.2l-5.2-3c2.9-4.7,6.8-8.6,11.4-11.4ZM218.1,117.5c-3.1,2.2-5.8,4.9-7.9,7.9l1.7,1c2-2.8,4.4-5.2,7.2-7.2l-1-1.7h0ZM206.3,127.9h0l5.2,3c-2.1,3.9-3.2,8.2-3.4,12.6h-6c.2-5.5,1.6-10.8,4.2-15.6h0ZM207.1,130.7c-1.6,3.4-2.6,7.1-2.9,10.8h2c.3-3.4,1.2-6.7,2.6-9.8l-1.7-1h0ZM202.1,145.5h6c.1,4.4,1.3,8.7,3.4,12.6l-5.2,3c-2.6-4.8-4-10.2-4.2-15.6ZM204.2,147.5c.3,3.8,1.3,7.4,2.9,10.8l1.7-1c-1.4-3.1-2.3-6.4-2.6-9.8h-2,0ZM207.3,162.9l5.2-3c2.3,3.7,5.5,6.9,9.2,9.2l-3,5.2c-4.7-2.9-8.6-6.8-11.4-11.4ZM210.1,163.5c2.2,3.1,4.9,5.8,7.9,7.9l1-1.7c-2.8-2-5.2-4.4-7.2-7.2l-1.7,1h0ZM220.5,175.3h0l3-5.2c3.9,2.1,8.2,3.2,12.6,3.4v6c-5.5-.2-10.8-1.6-15.6-4.2ZM223.3,174.5c3.4,1.6,7.1,2.6,10.8,2.9v-2c-3.4-.3-6.7-1.2-9.8-2.6l-1,1.7h0ZM238.1,179.5v-6c4.4-.1,8.7-1.3,12.6-3.4l3,5.2c-4.8,2.6-10.2,4-15.6,4.2ZM240.1,177.4c3.8-.3,7.4-1.3,10.8-2.9l-1-1.7c-3.1,1.4-6.4,2.3-9.8,2.6v2h0ZM255.5,174.3l-3-5.2c3.7-2.3,6.9-5.5,9.2-9.2l5.2,3c-2.9,4.7-6.8,8.6-11.4,11.4h0ZM256.1,171.5c3.1-2.2,5.8-4.9,7.9-7.9l-1.7-1c-2,2.8-4.4,5.2-7.2,7.2l1,1.7h0ZM267.9,161.1h0l-5.2-3c2.1-3.9,3.2-8.2,3.4-12.6h6c-.2,5.5-1.6,10.8-4.2,15.6h0ZM267.1,158.3c1.6-3.4,2.6-7.1,2.9-10.8h-2c-.3,3.4-1.2,6.7-2.6,9.8l1.7,1h0ZM272.1,143.5h-6c-.1-4.4-1.3-8.7-3.4-12.6l5.2-3c2.6,4.8,4,10.2,4.2,15.6h0ZM270,141.5c-.3-3.8-1.3-7.4-2.9-10.8l-1.7,1c1.4,3.1,2.3,6.4,2.6,9.8h2ZM266.9,126.1l-5.2,3c-2.3-3.7-5.5-6.9-9.2-9.2l3-5.2c4.7,2.9,8.6,6.8,11.4,11.4h0ZM264.1,125.5c-2.2-3.1-4.9-5.8-7.9-7.9l-1,1.7c2.8,2,5.2,4.4,7.2,7.2l1.7-1h0ZM238.1,109.5c5.5,0,10.8,1.6,15.6,4.2l-3,5.2c-3.9-2.1-8.2-3.2-12.6-3.4,0,0,0-6,0-6ZM250.9,114.5c-3.4-1.6-7.1-2.6-10.8-2.9v2c3.4.3,6.7,1.2,9.8,2.6l1-1.7h0ZM237.1,157.5c-7.2,0-13-5.8-13-13s5.8-13,13-13,13,5.8,13,13-5.8,13-13,13ZM237.1,155.5c6.1,0,11-4.9,11-11s-4.9-11-11-11-11,4.9-11,11,4.9,11,11,11h0ZM137.6,1.5h56.9l-.7,1c.6.7,1.1,1.4,1.6,2.1l7.8-2.9,2,3.5-6.4,5.2c.4.8.7,1.6,1,2.5l8.2-.8,1,3.9-7.5,3.4c.1.9.3,1.8.4,2.7l8.2,1.4v4l-8.1,1.4c0,.9-.2,1.8-.4,2.7l7.5,3.4-1,3.9-8.2-.8c-.3.8-.7,1.7-1,2.5l6.4,5.2-2,3.5-7.8-2.9c-.5.7-1.1,1.5-1.6,2.1l4.8,6.7-2.8,2.8-6.7-4.8c-.7.6-1.4,1.1-2.1,1.6l2.9,7.8-3.5,2-5.2-6.4c-.8.4-1.6.7-2.5,1l.8,8.2-3.9,1-3.4-7.5c-.9.2-1.8.3-2.7.3l-1.4,8.2h-4l-1.4-8.2c-.9,0-1.8-.2-2.7-.3l-3.4,7.5-3.9-1,.8-8.2c-.9-.3-1.7-.7-2.5-1l-5.2,6.4-3.5-2,2.9-7.8c-.7-.5-1.4-1.1-2.1-1.6l-6.7,4.8-2.8-2.8,4.8-6.7c-.6-.7-1.1-1.4-1.6-2.1l-7.8,2.9-2-3.5,6.4-5.2c-.4-.8-.7-1.7-1-2.5l-8.2.8-1-3.9,7.5-3.4c-.1-.9-.3-1.8-.4-2.7l-8.1-1.4v-4l8.1-1.4c0-.9.2-1.8.4-2.7l-7.5-3.4,1-3.9,8.2.8c.3-.9.7-1.7,1-2.5l-6.4-5.2,2-3.5,7.8,2.9c.5-.7,1.1-1.5,1.6-2.1l-.7-1h-.2ZM140.1,1.5l.8,1.2c-1.2,1.4-2.4,2.8-3.4,4.4l-7.6-2.9-.3.6,6.3,5.2c-.8,1.6-1.6,3.4-2.1,5.1l-8.1-.8-.2.6,7.4,3.4c-.4,1.8-.6,3.7-.7,5.5l-8,1.4v.7l8,1.3c.1,1.9.3,3.7.7,5.5l-7.4,3.4.2.6,8.1-.8c.6,1.8,1.3,3.5,2.1,5.1l-6.3,5.2.3.6,7.6-2.9c1,1.6,2.1,3,3.4,4.4l-4.7,6.6.5.5,6.6-4.7c1.4,1.2,2.8,2.4,4.4,3.4l-2.9,7.6.6.3,5.2-6.3c1.6.8,3.4,1.6,5.1,2.1l-.8,8.1.6.2,3.4-7.4c1.8.4,3.6.6,5.5.7l1.4,8h.7l1.3-8c1.9,0,3.7-.3,5.5-.7l3.4,7.4.6-.2-.8-8.1c1.8-.6,3.5-1.3,5.1-2.1l5.2,6.3.6-.3-2.9-7.6c1.6-1,3-2.1,4.4-3.4l6.6,4.7.5-.5-4.7-6.6c1.2-1.4,2.4-2.8,3.4-4.4l7.6,2.9.3-.6-6.3-5.2c.8-1.6,1.6-3.4,2.1-5.1l8.1.8.2-.6-7.4-3.4c.4-1.8.6-3.6.7-5.5l8-1.4v-.7l-8-1.3c-.1-1.9-.3-3.7-.7-5.5l7.4-3.4-.2-.6-8.1.8c-.6-1.8-1.3-3.5-2.1-5.1l6.3-5.2-.3-.6-7.6,2.9c-1-1.6-2.1-3-3.4-4.4l.8-1.2h-52.1.1ZM137.2,28.5h14.1c1.2,5.9,5.8,10.5,11.7,11.7v14.1c-13.6-1.4-24.4-12.2-25.9-25.8h.1ZM149.8,1.5h13.3v9.3c-5.9,1.2-10.5,5.8-11.7,11.7h-14.1c.9-8.5,5.5-16.2,12.6-21h-.1ZM169.1,54.3v-14.1c5.9-1.2,10.5-5.8,11.7-11.7h14.1c-1.4,13.6-12.2,24.4-25.8,25.8ZM182.4,1.5c7.1,4.8,11.7,12.5,12.6,21h-14.2c-1.2-5.9-5.8-10.5-11.7-11.7V1.5h13.3,0ZM139.6,30.5c2.1,10.9,10.6,19.5,21.5,21.5v-10.3c-5.4-1.7-9.6-5.9-11.2-11.2h-10.3ZM153.7,1.5c-7.4,3.8-12.6,10.8-14.2,19h10.3c1.7-5.4,5.9-9.6,11.3-11.2V1.5h-7.4ZM171.1,52c10.9-2.1,19.5-10.6,21.5-21.5h-10.3c-1.7,5.4-5.9,9.6-11.2,11.2v10.3ZM178.5,1.5h-7.4v7.8c5.4,1.7,9.6,5.9,11.2,11.2h10.3c-1.5-8.2-6.8-15.2-14.2-19h.1ZM166.1,35.5c-5.5,0-10-4.5-10-10s4.5-10,10-10,10,4.5,10,10-4.5,10-10,10ZM166.1,33.5c4.4,0,8-3.6,8-8s-3.6-8-8-8-8,3.6-8,8,3.6,8,8,8ZM126.6,209.6l-10.7-7.9,6-10.4,12.2,5.3c2.4-2.2,5.3-3.8,8.4-4.9l1.6-13.2h12l1.6,13.2c3.1,1,6,2.7,8.4,4.9l12.2-5.3,6,10.4-10.7,7.9c.7,3.2.7,6.5,0,9.7l10.7,7.9-6,10.4-12.2-5.3c-2.4,2.2-5.3,3.8-8.4,4.9l-1.6,13.2h-12l-1.6-13.2c-3.1-1-6-2.7-8.4-4.9l-12.2,5.3-6-10.4,10.7-7.9c-.7-3.2-.7-6.5,0-9.7h0ZM155.8,193.3l-1.5-12.8h-8.5l-1.5,12.8c-3.8,1-7.1,3-9.8,5.6l-11.8-5.1-4.2,7.3,10.3,7.7c-1,3.7-1,7.6,0,11.3l-10.3,7.7,4.2,7.3,11.8-5.1c2.7,2.7,6.1,4.6,9.8,5.6l1.5,12.8h8.5l1.5-12.8c3.8-1,7.1-3,9.8-5.6l11.8,5.1,4.2-7.3-10.3-7.7c1-3.7,1-7.6,0-11.3l10.3-7.7-4.2-7.3-11.8,5.1c-2.7-2.7-6.1-4.7-9.8-5.6h0ZM150.1,226.5c-6.6,0-12-5.4-12-12s5.4-12,12-12,12,5.4,12,12-5.4,12-12,12ZM150.1,224.5c5.5,0,10-4.5,10-10s-4.5-10-10-10-10,4.5-10,10,4.5,10,10,10ZM153.6,292.2h4.3l.5,2-3.6,2.2c.1.6.2,1.3.2,1.9l4.1,1.2v2l-4.1,1.2c0,.6-.1,1.3-.2,1.9l3.6,2.2-.5,1.9h-4.3c-.2.7-.5,1.3-.7,1.9l3,3-1,1.7-4.1-1c-.4.5-.8,1-1.2,1.5l2.1,3.7-1.4,1.4-3.7-2.1c-.5.4-1,.8-1.5,1.2l1,4.1-1.7,1-3.1-3c-.6.3-1.2.5-1.8.7v4.3l-2,.5-2.2-3.6c-.6.1-1.3.2-1.9.2l-1.2,4.1h-2l-1.2-4.1c-.6,0-1.3-.1-1.9-.2l-2.2,3.6-1.9-.5v-4.3c-.7-.2-1.3-.5-1.9-.7l-3.1,3-1.7-1,1-4.1c-.5-.4-1-.8-1.5-1.2l-3.7,2.1-1.4-1.4,2.1-3.7c-.4-.5-.8-1-1.2-1.5l-4.1,1-1-1.7,3-3c-.3-.6-.5-1.2-.7-1.8h-4.3l-.5-2,3.7-2.2c0-.6-.2-1.3-.2-1.9l-4.1-1.2v-2l4.1-1.2c0-.6,0-1.3.2-1.9l-3.7-2.2.5-1.9h4.3c.2-.7.5-1.3.7-1.9l-3-3,1-1.7,4.1,1c.4-.5.8-1,1.2-1.5l-2.1-3.7,1.4-1.4,3.7,2.1c.5-.4,1-.8,1.5-1.2l-1-4.1,1.7-1,3.1,3c.6-.3,1.2-.5,1.8-.7v-4.3l2-.5,2.2,3.6c.6-.1,1.3-.2,1.9-.2l1.2-4.1h2l1.2,4.1c.6,0,1.3.1,1.9.2l2.2-3.6,1.9.5v4.3c.7.2,1.3.5,1.9.7l3.1-3,1.7,1-1,4.1c.5.4,1,.8,1.5,1.2l3.7-2.1,1.4,1.4-2.1,3.7c.4.5.8,1,1.2,1.5l4.1-1,1,1.7-3,3c.3.6.5,1.2.7,1.8h0ZM109.1,300.5c0,12.2,9.8,22,22,22s22-9.8,22-22-9.8-22-22-22-22,9.8-22,22ZM136.2,289.6l-3,5.2c-1.4-.5-2.9-.5-4.2,0l-3-5.2c3.2-1.5,7-1.5,10.2,0h0ZM138,290.6c2.9,2,4.8,5.3,5.1,8.9h-6c-.2-1.4-1-2.7-2.1-3.6l3-5.2h0v-.1ZM124.3,290.6l3,5.2c-1.1.9-1.9,2.2-2.1,3.6h-6c.3-3.6,2.2-6.8,5.1-8.9h0v.1ZM119.2,301.5h6c.2,1.4,1,2.7,2.1,3.6l-3,5.2c-2.9-2-4.8-5.3-5.1-8.9h0v.1ZM126,311.4l3-5.2c1.4.5,2.9.5,4.2,0l3,5.2c-3.2,1.5-7,1.5-10.2,0ZM138,310.4l-3-5.2c1.1-.9,1.9-2.2,2.1-3.6h6c-.3,3.6-2.2,6.8-5.1,8.9h0v-.1ZM133.3,290.7c-1.4-.3-2.9-.3-4.3,0l1.1,1.8c.7-.1,1.5-.1,2.2,0l1.1-1.8h-.1ZM138.5,293.7l-1.1,1.8c.5.6.8,1.2,1.1,1.9h2.1c-.4-1.4-1.2-2.7-2.2-3.8h0l.1.1ZM123.7,293.7c-1,1.1-1.7,2.4-2.2,3.8h2.1c.3-.7.7-1.4,1.1-1.9l-1.1-1.8h0l.1-.1ZM121.6,303.5c.4,1.4,1.2,2.7,2.2,3.8l1.1-1.8c-.5-.6-.8-1.2-1.1-1.9h-2.2v-.1ZM128.9,310.3c1.4.3,2.9.3,4.3,0l-1.1-1.8c-.7.1-1.5.1-2.2,0l-1.1,1.8h.1ZM138.5,307.3c1-1.1,1.7-2.4,2.2-3.8h-2.1c-.3.7-.7,1.4-1.1,1.9l1.1,1.8h0l-.1.1ZM127.1,300.5c0-2.2,1.8-4,4-4s4,1.8,4,4-1.8,4-4,4-4-1.8-4-4ZM129.1,300.5c0,1.1.9,2,2,2s2-.9,2-2-.9-2-2-2-2,.9-2,2ZM144.1,300.5c0-2.2,1.8-4,4-4s4,1.8,4,4-1.8,4-4,4-4-1.8-4-4ZM137.6,311.8c1.9-1.1,4.4-.4,5.5,1.5s.4,4.4-1.5,5.5h0c-1.9,1.1-4.4.4-5.5-1.5s-.4-4.4,1.5-5.5ZM124.6,311.8c1.9,1.1,2.6,3.6,1.5,5.5s-3.6,2.6-5.5,1.5h0c-1.9-1.1-2.6-3.6-1.5-5.5s3.6-2.6,5.5-1.5ZM118.1,300.5c0,2.2-1.8,4-4,4s-4-1.8-4-4,1.8-4,4-4,4,1.8,4,4ZM124.6,289.2c-1.9,1.1-4.4.4-5.5-1.5s-.4-4.4,1.5-5.5,4.4-.4,5.5,1.5.4,4.4-1.5,5.5h0ZM137.6,289.2c-1.9-1.1-2.6-3.6-1.5-5.5s3.6-2.6,5.5-1.5,2.6,3.6,1.5,5.5-3.6,2.6-5.5,1.5h0ZM146.1,300.5c0,1.1.9,2,2,2s2-.9,2-2-.9-2-2-2-2,.9-2,2ZM138.6,313.5c-1,.5-1.4,1.6-1,2.6.5,1,1.6,1.4,2.7,1s1.4-1.6,1-2.6c-.5-1-1.6-1.4-2.7-1ZM123.6,313.5c-.9-.6-2.2-.3-2.8.6-.6.9-.3,2.2.6,2.8s2.2.3,2.8-.6c.6-.9.3-2.2-.6-2.8h0ZM116.1,300.5c0-1.1-.9-2-2-2s-2,.9-2,2,.9,2,2,2,2-.9,2-2ZM123.6,287.5c1-.5,1.4-1.6,1-2.6-.5-1-1.6-1.4-2.7-1s-1.4,1.6-1,2.6c.5,1,1.6,1.4,2.7,1ZM138.6,287.5c.9.6,2.2.3,2.8-.6s.3-2.2-.6-2.8h0c-.9-.6-2.2-.3-2.8.6s-.3,2.2.6,2.8ZM242.4,225.8l-.8-8.2,5.8-1.6,3.4,7.5c2.3-.4,4.6-.7,6.9-.9l1.4-8.2h6l1.4,8.2c2.4.2,4.7.5,6.9.9l3.4-7.5,5.8,1.6-.8,8.2c2.2.8,4.4,1.7,6.5,2.7l5.2-6.4,5.2,3-2.9,7.7c1.9,1.3,3.8,2.7,5.5,4.2l6.7-4.8,4.2,4.2-4.8,6.7c1.5,1.8,2.9,3.6,4.2,5.5l7.7-2.9,3,5.2-6.4,5.2c1,2.1,1.9,4.2,2.7,6.4l8.2-.8,1.5,5.8-7.5,3.4c.4,2.3.7,4.6.9,6.9l8.2,1.4v6l-8.2,1.4c-.2,2.3-.5,4.6-.9,6.9l7.5,3.4-1.5,5.8-8.2-.8c-.8,2.2-1.7,4.4-2.7,6.5l6.4,5.2-3,5.2-7.7-2.9c-1.3,1.9-2.7,3.8-4.2,5.5l4.8,6.7-4.2,4.2-6.7-4.8c-1.8,1.5-3.6,2.9-5.5,4.2l2.9,7.7-5.2,3-5.2-6.4c-2.1,1-4.2,1.9-6.5,2.7l.8,8.2-5.8,1.5-3.4-7.5c-2.3.4-4.6.7-6.9.9l-1.4,8.2h-6l-1.4-8.2c-2.3-.2-4.6-.5-6.9-.9l-3.4,7.5-5.8-1.5.8-8.2c-2.2-.8-4.4-1.7-6.4-2.7l-5.2,6.4-5.2-3,2.9-7.7c-1.9-1.3-3.8-2.7-5.5-4.2l-6.7,4.8-4.2-4.2,4.8-6.7c-1.5-1.8-2.9-3.6-4.2-5.5l-7.7,2.9-3-5.2,6.4-5.2c-1-2.1-1.9-4.2-2.7-6.5l-8.2.8-1.6-5.8,7.5-3.4c-.4-2.3-.7-4.6-.9-6.9l-8.2-1.4v-6l8.2-1.4c.2-2.4.5-4.7.9-6.9l-7.5-3.4,1.6-5.8,8.2.8c.8-2.2,1.7-4.4,2.7-6.4l-6.4-5.2,3-5.2,7.7,2.9c1.3-1.9,2.7-3.8,4.2-5.5l-4.8-6.7,4.2-4.2,6.7,4.8c1.8-1.5,3.6-2.9,5.5-4.2l-2.9-7.7,5.2-3,5.2,6.4c2.1-1,4.2-1.9,6.4-2.7h0ZM244.5,227.2c-3.1,1-6.2,2.3-9.1,3.8l-5.2-6.3-2.3,1.3,2.9,7.6c-2.8,1.8-5.4,3.8-7.8,6l-6.6-4.8-1.9,1.9,4.8,6.6c-2.2,2.4-4.2,5-6,7.8l-7.6-2.9-1.3,2.3,6.3,5.2c-1.5,2.9-2.8,5.9-3.8,9.1l-8.1-.8-.7,2.6,7.4,3.4c-.7,3.2-1.1,6.5-1.3,9.7l-8.1,1.4v2.7l8.1,1.4c.1,3.3.6,6.6,1.3,9.7l-7.4,3.4.7,2.6,8.1-.8c1,3.1,2.3,6.2,3.8,9.1l-6.3,5.2,1.3,2.3,7.6-2.9c1.8,2.8,3.8,5.4,6,7.8l-4.8,6.6,1.9,1.9,6.6-4.8c2.4,2.2,5,4.2,7.8,6l-2.9,7.6,2.3,1.3,5.2-6.3c2.9,1.5,5.9,2.8,9.1,3.8l-.8,8.1,2.6.7,3.4-7.4c3.1.7,6.4,1.1,9.7,1.3l1.4,8.1h2.7l1.4-8.1c3.3-.1,6.6-.6,9.7-1.3l3.4,7.4,2.6-.7-.8-8.1c3.1-1,6.2-2.3,9.1-3.8l5.2,6.3,2.3-1.3-2.9-7.6c2.8-1.8,5.4-3.8,7.8-6l6.6,4.8,1.9-1.9-4.8-6.6c2.2-2.4,4.2-5,6-7.8l7.6,2.9,1.3-2.3-6.3-5.2c1.5-2.9,2.8-5.9,3.8-9.1l8.1.8.7-2.6-7.4-3.4c.7-3.2,1.1-6.5,1.3-9.7l8.1-1.4v-2.7l-8.1-1.4c-.1-3.3-.6-6.5-1.3-9.7l7.4-3.4-.7-2.6-8.1.8c-1-3.1-2.3-6.2-3.8-9.1l6.3-5.2-1.3-2.3-7.6,2.9c-1.8-2.8-3.8-5.4-6-7.8l4.8-6.6-1.9-1.9-6.6,4.8c-2.4-2.2-5-4.2-7.8-6l2.9-7.6-2.3-1.3-5.2,6.3c-2.9-1.5-5.9-2.8-9.1-3.8l.8-8.1-2.6-.7-3.4,7.4c-3.2-.7-6.5-1.1-9.7-1.3l-1.4-8.1h-2.7l-1.4,8.1c-3.3.1-6.6.6-9.7,1.3l-3.4-7.4-2.6.7.8,8.1h0ZM249.1,277.3c-1.3,3.3-1.3,7.1,0,10.4l-33.9,19.5c-4-7.6-6.1-16.1-6.1-24.8s2.2-17.4,6.1-24.8l33.9,19.5h0v.2h0ZM251.1,273.8l-33.9-19.6c9.3-14.8,25.4-24.1,42.9-24.7v39.1c-3.6.5-6.8,2.4-9,5.2ZM251.1,291.2c2.2,2.8,5.4,4.7,9,5.2v39.1c-17.5-.7-33.5-9.9-42.9-24.7l33.9-19.6ZM264.1,296.4c3.6-.5,6.8-2.4,9-5.2l33.9,19.6c-9.3,14.8-25.4,24.1-42.9,24.7v-39.1h0ZM275.1,287.7c1.3-3.3,1.3-7.1,0-10.4l33.9-19.5c4,7.6,6.1,16.1,6.1,24.7s-2.2,17.4-6.1,24.8l-33.9-19.5h0v-.1ZM273.1,273.8c-2.2-2.8-5.4-4.7-9-5.2v-39.1c17.5.7,33.5,9.9,42.9,24.7l-33.9,19.6h0ZM216.1,260.5c-3.3,6.9-5,14.4-5,22s1.7,15.1,5,22l30.6-17.7c-.8-2.8-.8-5.8,0-8.6l-30.6-17.7h0ZM220.1,253.6l30.6,17.7c2-2.1,4.6-3.6,7.4-4.3v-35.4c-15.3,1.2-29.3,9.3-38,22h0ZM220.1,311.4c8.7,12.7,22.7,20.8,38,22v-35.4c-2.8-.7-5.4-2.2-7.4-4.3l-30.6,17.7h0ZM266.1,333.4c15.3-1.2,29.3-9.3,38-22l-30.6-17.7c-2,2.1-4.6,3.6-7.4,4.3v35.4h0ZM308.1,304.5c3.3-6.9,5-14.4,5-22s-1.7-15.1-5-22l-30.6,17.7c.8,2.8.8,5.8,0,8.6l30.6,17.7h0ZM304.1,253.6c-8.7-12.7-22.7-20.8-38-22v35.4c2.9.7,5.4,2.2,7.4,4.3l30.6-17.7h0ZM262.1,291.5c-5,0-9-4-9-9s4-9,9-9,9,4,9,9-4,9-9,9ZM262.1,289.5c3.9,0,7-3.1,7-7s-3.1-7-7-7-7,3.1-7,7,3.1,7,7,7ZM.1,244.1l2.8.4,4.8,2.3c.9-1.2,1.8-2.3,2.9-3.4l-3.1-4.3-1.7-5.1,3.1-2.6,4.7,2.6,3.7,3.8c1.2-.8,2.5-1.6,3.8-2.2l-1.4-5.1.2-5.4,3.8-1.4,3.6,4,2.2,4.8c1.4-.3,2.9-.6,4.4-.8l.4-5.2,2-5h4l2,5,.4,5.2c1.5.2,3,.4,4.4.8l2.2-4.8,3.6-4,3.8,1.4.2,5.4-1.4,5.1c1.3.7,2.6,1.4,3.8,2.2l3.7-3.8,4.7-2.6,3.1,2.6-1.7,5.1-3.1,4.3c1,1.1,2,2.2,2.8,3.4l4.8-2.3,5.3-.8,2,3.5-3.3,4.2-4.3,3c.6,1.4,1.1,2.8,1.5,4.2l5.2-.5,5.3,1.1.7,3.9-4.6,2.8-5.1,1.3v4.4l5.1,1.3,4.6,2.9-.7,3.9-5.3,1.1-5.2-.5c-.4,1.4-.9,2.8-1.5,4.2l4.3,3,3.3,4.2-2,3.5-5.3-.8-4.8-2.3c-.9,1.2-1.8,2.3-2.8,3.4l3.1,4.3,1.7,5.1-3.1,2.6-4.7-2.5-3.7-3.8c-1.2.8-2.5,1.6-3.8,2.2l1.4,5.1-.2,5.4-3.8,1.4-3.6-4-2.2-4.8c-1.4.3-2.9.6-4.4.8l-.4,5.2-2,5h-4l-2-5-.4-5.2c-1.5-.2-2.9-.4-4.4-.8l-2.2,4.8-3.6,4-3.8-1.4-.2-5.4,1.4-5.1c-1.3-.7-2.6-1.4-3.8-2.2l-3.7,3.8-4.7,2.5-3.1-2.6,1.7-5.1,3.1-4.3c-1-1.1-2-2.2-2.8-3.4l-4.8,2.3-2.9.5v-8.2l3.1-2.1c-.6-1.4-1.1-2.8-1.5-4.2H.1c0,.1,0-8.7,0-8.7H.1v-4.5H.1v-8.8l1.6.2c.4-1.4.9-2.8,1.5-4.2l-3.1-2.1v-8.2H.1ZM.1,246v3.9l5.6,3.8c-1.1,2.2-1.9,4.6-2.5,7l-3.1-.3v4.8l2.2.6c-.3,2.5-.3,5,0,7.5l-2.2.6v4.8l3.1-.3c.6,2.4,1.5,4.8,2.5,7l-5.6,3.8v3.9l1.8-.3,6.4-3.1c1.4,2.1,3,4,4.8,5.7l-4.1,5.8-1,3.1,1.2,1,2.8-1.5,5-5.1c2,1.5,4.2,2.7,6.5,3.7l-1.9,6.8v3.2c.1,0,1.6.5,1.6.5l2.1-2.4,2.9-6.5c2.4.7,4.9,1.1,7.3,1.3l.5,7.1,1.2,3h1.6l1.2-3,.5-7.1c2.5-.2,4.9-.6,7.3-1.3l2.9,6.5,2.2,2.4,1.5-.5v-3.2l-1.8-6.8c2.3-1,4.4-2.3,6.5-3.7l5,5.1,2.8,1.5,1.2-1-1-3.1-4.2-5.8c1.8-1.7,3.4-3.6,4.8-5.7l6.4,3.1,3.2.5.8-1.4-2-2.5-5.8-4c1.1-2.2,1.9-4.6,2.6-7l7.1.7,3.2-.7.3-1.6-2.8-1.7-6.9-1.8c.3-2.5.3-5,0-7.5l6.9-1.8,2.8-1.7-.3-1.6-3.2-.7-7.1.7c-.6-2.4-1.5-4.8-2.6-7l5.9-4,2-2.6-.8-1.4-3.2.5-6.4,3.1c-1.4-2.1-3-4-4.8-5.7l4.1-5.8,1-3.1-1.2-1-2.8,1.5-5,5.1c-2-1.4-4.2-2.7-6.5-3.7l1.9-6.8v-3.2l-1.6-.6-2.2,2.4-2.9,6.5c-2.4-.7-4.9-1.1-7.3-1.3l-.6-7.1-1.2-3h-1.6l-1.2,3-.5,7.1c-2.5.2-4.9.6-7.3,1.3l-2.9-6.5-2.1-2.4-1.5.5v3.2c-.1,0,1.8,6.8,1.8,6.8-2.3,1-4.4,2.3-6.5,3.7l-5-5.1-2.9-1.5-1.2,1,1,3.1,4.2,5.8c-1.8,1.7-3.4,3.6-4.8,5.7l-6.4-3.1L0,245.8h.1v.2ZM38.1,273.5c-2.2,0-4-1.8-4-4s1.8-4,4-4,4,1.8,4,4-1.8,4-4,4ZM38.1,271.5c1.1,0,2-.9,2-2s-.9-2-2-2-2,.9-2,2,.9,2,2,2ZM38.1,245.5c-2.2,0-4-1.8-4-4s1.8-4,4-4,4,1.8,4,4-1.8,4-4,4ZM62.1,269.5c0-2.2,1.8-4,4-4s4,1.8,4,4-1.8,4-4,4-4-1.8-4-4ZM38.1,293.5c2.2,0,4,1.8,4,4s-1.8,4-4,4-4-1.8-4-4,1.8-4,4-4ZM14.1,269.5c0,2.2-1.8,4-4,4s-4-1.8-4-4,1.8-4,4-4,4,1.8,4,4ZM38.1,243.5c1.1,0,2-.9,2-2s-.9-2-2-2-2,.9-2,2,.9,2,2,2ZM64.1,269.5c0,1.1.9,2,2,2s2-.9,2-2-.9-2-2-2-2,.9-2,2ZM38.1,295.5c-1.1,0-2,.9-2,2s.9,2,2,2,2-.9,2-2-.9-2-2-2ZM12.1,269.5c0-1.1-.9-2-2-2s-2,.9-2,2,.9,2,2,2,2-.9,2-2ZM15.5,292.1c-4.9-4.5-5.3-12.1-.8-17,4.5-4.9,12.1-5.3,17-.8,4.9,4.5,5.3,12.1.8,17s-12.1,5.3-17,.8ZM15.5,246.9c4.5-4.9,12.1-5.3,17-.8s5.3,12.1.8,17-12.1,5.3-17,.8-5.3-12.1-.8-17h0ZM60.7,246.9c4.9,4.5,5.3,12.1.8,17-4.5,4.9-12.1,5.3-17,.8h0c-4.9-4.5-5.3-12.1-.8-17s12.1-5.3,17-.8h0ZM60.7,292.1c-4.5,4.9-12.1,5.3-17,.8s-5.3-12.1-.8-17,12.1-5.3,17-.8,5.3,12.1.8,17ZM45.2,262.4c3.8,4,10.2,4.1,14.1.2s4.1-10.2.2-14.1c-3.8-4-10.2-4.1-14.1-.2-4,3.8-4.1,10.2-.2,14.1ZM45.2,276.6c-4,3.8-4.1,10.2-.2,14.1,3.8,4,10.2,4.1,14.1.2h0c4-3.8,4.1-10.2.2-14.1s-10.2-4.1-14.1-.2ZM31,276.6c-3.8-4-10.2-4.1-14.1-.2s-4.1,10.2-.2,14.1,10.2,4.1,14.1.2c4-3.8,4.1-10.2.2-14.1h0ZM31,262.4c4-3.8,4.1-10.2.2-14.1-3.8-4-10.2-4.1-14.1-.2-4,3.8-4.1,10.2-.2,14.1s10.2,4.1,14.1.2ZM261.9,17v-4.2l1.9-.5,2,3.7c1.1-.2,2.2-.4,3.3-.4l1-4.1h2l1,4.1c1.1,0,2.2.2,3.3.4l2-3.7,1.9.5v4.2c1,.4,2,.8,3,1.3l2.9-3,1.7,1-1.2,4c.9.6,1.8,1.3,2.6,2l3.6-2.1,1.4,1.4-2.2,3.6c.7.8,1.4,1.7,2,2.6l4-1.1,1,1.7-3,2.9c.5,1,.9,2,1.3,3h4.2l.5,1.9-3.7,2c.2,1.1.4,2.2.4,3.3l4.1,1v2l-4.1,1c0,1.1-.2,2.2-.4,3.3l3.7,2-.5,1.9h-4.2c-.4,1-.8,2-1.3,3l3,2.9-1,1.7-4-1.2c-.6.9-1.3,1.8-2,2.6l2.1,3.6-1.4,1.4-3.6-2.2c-.8.7-1.7,1.4-2.6,2l1.1,4-1.7,1-2.9-3c-1,.5-2,.9-3,1.3v4.2l-1.9.5-2-3.7c-1.1.2-2.2.3-3.3.4l-1,4.1h-2l-1-4.1c-1.1,0-2.2-.2-3.3-.4l-2,3.7-1.9-.5v-4.2c-1-.4-2-.8-3-1.3l-2.9,3-1.7-1,1.2-4c-.9-.6-1.8-1.3-2.6-2l-3.6,2.2-1.4-1.4,2.2-3.6c-.7-.8-1.4-1.7-2-2.6l-4,1.2-1-1.7,3-2.9c-.5-1-.9-2-1.3-3h-4.2l-.5-1.9,3.7-2c-.2-1.1-.4-2.2-.4-3.3l-4.1-1v-2l4.1-1c0-1.1.2-2.2.4-3.3l-3.7-2,.5-1.9h4.2c.4-1,.8-2,1.3-3l-3-2.9,1-1.7,4,1.2c.6-.9,1.3-1.8,2-2.6l-2.1-3.6,1.4-1.4,3.6,2.2c.8-.7,1.7-1.4,2.6-2l-1.1-4,1.7-1,2.9,3c1-.5,2-.9,3-1.3h0v-.2h0ZM271.1,69.5c14.4,0,26-11.6,26-26s-11.6-26-26-26-26,11.6-26,26,11.6,26,26,26ZM271.1,60.5c-9.4,0-17-7.6-17-17s7.6-17,17-17,17,7.6,17,17-7.6,17-17,17ZM271.1,58.5c8.3,0,15-6.7,15-15s-6.7-15-15-15-15,6.7-15,15,6.7,15,15,15ZM271.1,50.5c-3.9,0-7-3.1-7-7s3.1-7,7-7,7,3.1,7,7-3.1,7-7,7ZM271.1,48.5c2.8,0,5-2.2,5-5s-2.2-5-5-5-5,2.2-5,5,2.2,5,5,5ZM271.1,34.5c-1.1,0-2-.9-2-2s.9-2,2-2,2,.9,2,2-.9,2-2,2ZM280.1,43.5c0-1.1.9-2,2-2s2,.9,2,2-.9,2-2,2-2-.9-2-2ZM271.1,52.5c1.1,0,2,.9,2,2s-.9,2-2,2-2-.9-2-2,.9-2,2-2ZM262.1,43.5c0,1.1-.9,2-2,2s-2-.9-2-2,.9-2,2-2,2,.9,2,2ZM310,97.3l-1.8-3.9,1.6-1.2,3.1,2.9c.4-.2.8-.3,1.2-.4l.8-4.2h2l.8,4.2c.4,0,.9.2,1.2.4l3.1-2.9,1.6,1.2-1.8,3.9c.3.3.5.7.8,1.1l4.3-.5.6,1.9-3.8,2.1v1.3l3.8,2.1-.6,1.9-4.3-.5c-.2.4-.5.7-.8,1.1l1.8,3.9-1.6,1.2-3.1-2.9c-.4.2-.8.3-1.2.4l-.8,4.2h-2l-.8-4.2c-.4,0-.9-.2-1.2-.4l-3.1,2.9-1.6-1.2,1.8-3.9c-.3-.3-.5-.7-.8-1.1l-4.3.5-.6-1.9,3.8-2.1v-1.3l-3.8-2.1.6-1.9,4.3.5c.2-.4.5-.7.8-1.1ZM316.1,107.5c2.8,0,5-2.2,5-5s-2.2-5-5-5-5,2.2-5,5,2.2,5,5,5ZM75.8,180.7l-.6-2.1,1.7-1,1.5,1.6c.7-.3,1.4-.4,2.1-.6l.5-2.1h2l.5,2.1c.7.1,1.4.3,2.1.6l1.5-1.6,1.7,1-.6,2.1c.6.4,1.1,1,1.5,1.5l2.1-.6,1,1.7-1.6,1.5c.2.7.4,1.4.6,2.1l2.1.5v2l-2.1.5c0,.7-.3,1.4-.6,2.1l1.6,1.5-1,1.7-2.1-.6c-.5.6-1,1.1-1.5,1.5l.6,2.1-1.7,1-1.5-1.6c-.7.2-1.4.4-2.1.6l-.5,2.1h-2l-.5-2.1c-.7-.1-1.4-.3-2.1-.6l-1.5,1.6-1.7-1,.6-2.1c-.6-.5-1.1-1-1.5-1.5l-2.1.6-1-1.7,1.6-1.5c-.3-.7-.4-1.4-.6-2.1l-2.1-.5v-2l2.1-.5c0-.7.3-1.4.6-2.1l-1.6-1.5,1-1.7,2.1.6c.4-.6,1-1.1,1.5-1.5h0ZM78,181.6c-1.1.7-2.1,1.6-2.7,2.7v.2c-1.5,2.4-1.5,5.3,0,7.7v.2c.8,1.1,1.8,2.1,2.9,2.7h.2c2.4,1.5,5.3,1.5,7.7.1h.2c1.1-.8,2.1-1.8,2.7-2.9v-.2c1.5-2.4,1.5-5.3,0-7.7v-.2c-.8-1.1-1.8-2.1-2.9-2.7h-.2c-2.4-1.5-5.3-1.5-7.7-.1h-.2v.2ZM82.1,194.5c-3.3,0-6-2.7-6-6s2.7-6,6-6,6,2.7,6,6-2.7,6-6,6ZM82.1,192.5c2.2,0,4-1.8,4-4s-1.8-4-4-4-4,1.8-4,4,1.8,4,4,4ZM360.1,195.7l-3.8,5.6-7.2-3.5,2.6-8.1c-1.1-.8-2.1-1.6-3.1-2.5l-7.3,4.4-5-6.2,5.8-6.3c-.6-1.1-1.2-2.3-1.7-3.5l-8.5.7-1.8-7.8,8-3.1v-3.9l-8-3.1,1.8-7.8,8.5.7c.5-1.2,1.1-2.4,1.7-3.5l-5.8-6.3,5-6.2,7.3,4.4c1-.9,2-1.7,3.1-2.5l-2.6-8.1,7.2-3.5,3.8,5.6v64.4h0v.1ZM360.1,192.1v-57.3l-4.5-6.6-4.1,2,2.5,7.9c-1.9,1.2-3.6,2.6-5.1,4.1l-7.1-4.2-2.9,3.6,5.6,6.1c-1.2,1.8-2.1,3.8-2.8,5.9l-8.2-.7-1,4.5,7.7,3c-.2,2.2-.2,4.3,0,6.5l-7.7,3,1,4.4,8.2-.7c.7,2.1,1.7,4,2.8,5.9l-5.6,6.1,2.9,3.5,7.1-4.2c1.6,1.5,3.3,2.9,5.1,4.1l-2.5,7.9,4.1,2,4.5-6.6h0v-.2h0ZM360.1,140.6v5.7l-3.6-3.8c1.1-.7,2.3-1.4,3.6-1.9ZM360.1,163.3l-14.2,6.6c-2.5-9.5.8-19.6,8.4-25.8l5.8,10.5v8.6h0v.1ZM360.1,186.4c-6.1-2.7-10.9-7.7-13.3-13.9l13.3-2.6v16.4h0v.1ZM360.1,142.8l-.4.2.4.4v-.6h0ZM360.1,161.1v-2.4l-6.3-11.4c-5.2,5.2-7.6,12.5-6.4,19.8l12.7-6h0ZM360.1,184.2v-12.2l-10.5,2c2.3,4.5,6,8,10.5,10.2h0ZM.1,131.3l1,1.5c1.2-.4,2.5-.7,3.8-.9l1.2-8.4h8l1.2,8.4c1.3.2,2.6.5,3.8.9l4.8-7.1,7.2,3.5-2.6,8.1c1.1.8,2.1,1.6,3.1,2.5l7.3-4.4,5,6.2-5.8,6.3c.6,1.1,1.2,2.3,1.7,3.5l8.5-.7,1.8,7.8-8,3.1v3.9l8,3.1-1.8,7.8-8.5-.7c-.5,1.2-1.1,2.4-1.7,3.5l5.8,6.3-5,6.2-7.3-4.4c-1,.9-2,1.7-3.1,2.5l2.6,8.1-7.2,3.5-4.8-7.1c-1.2.4-2.5.6-3.8.9l-1.2,8.4H6.1l-1.2-8.4c-1.3-.2-2.6-.5-3.8-.9l-1,1.4v-64.4h0ZM.1,134.9v57.3l.2-.3c2,.7,4.1,1.2,6.3,1.4l1.2,8.2h4.6l1.2-8.2c2.2-.2,4.3-.7,6.3-1.4l4.6,6.9,4.1-2-2.5-7.9c1.9-1.2,3.6-2.6,5.1-4.1l7.1,4.2,2.9-3.6-5.7-6.1c1.1-1.8,2.1-3.8,2.8-5.9l8.2.7,1-4.5-7.7-3c.2-2.2.2-4.3,0-6.5l7.7-3-1-4.4-8.2.7c-.7-2.1-1.7-4-2.8-5.9l5.7-6.1-2.9-3.5-7.1,4.2c-1.6-1.5-3.3-2.9-5.1-4.1l2.5-7.9-4.1-2-4.6,6.9c-2.1-.7-4.2-1.2-6.4-1.4l-1.2-8.2h-4.6l-1.2,8.2c-2.2.2-4.3.7-6.3,1.4l-.2-.3h0v.2h.1ZM34.3,169.9l-16.3-7.6c-.1-.9-.4-1.7-.8-2.4l8.7-15.7c7.6,6.2,10.9,16.3,8.4,25.8h0v-.1ZM33.4,172.5c-3.6,9.2-12.1,15.4-21.9,15.9l2.2-17.8c.8-.4,1.5-.9,2.1-1.5l17.6,3.4h0ZM.1,140.6c3.2-1.4,6.6-2.1,10-2.1,5,0,9.6,1.5,13.6,4l-12.3,13.1c-.8-.1-1.7-.1-2.6,0L.1,146.3v-5.7ZM.1,163.3v-8.6l2.9,5.2c-.4.8-.7,1.6-.8,2.4l-2.1,1H.1ZM.1,186.4v-16.4l4.3-.8c.6.6,1.3,1.1,2.1,1.5l2.2,17.8c-3-.2-5.9-.9-8.6-2H.1v-.1ZM10.1,157.5c3.3,0,6,2.7,6,6s-2.7,6-6,6-6-2.7-6-6,2.7-6,6-6ZM10.1,159.5c-2.2,0-4,1.8-4,4s1.8,4,4,4,4-1.8,4-4-1.8-4-4-4ZM.1,142.8v.6l9.5,10.1h1l9.9-10.5c-3.2-1.6-6.8-2.5-10.4-2.5s-7,.8-10,2.3H.1ZM.1,161.1l.3-.2c0-.3.2-.7.3-1l-.6-1.2v2.4H.1ZM.1,184.2c2,.9,4.1,1.6,6.3,2l-1.8-14.3c-.3-.2-.6-.4-.8-.6l-3.7.7v12.2H.1ZM13.8,186.2c7.2-1.2,13.5-5.7,16.8-12.2l-14.2-2.7c-.3.2-.6.4-.8.6l-1.8,14.3h0ZM32.8,167c1.1-7.2-1.3-14.6-6.4-19.8l-7,12.6c.1.3.2.6.3,1l13.1,6.1h0v.1ZM137.6,361.5l-4.1-5.7,2.8-2.8,6.7,4.8c.7-.6,1.4-1.1,2.1-1.6l-2.9-7.8,3.5-2,5.2,6.4c.8-.4,1.6-.7,2.5-1l-.8-8.2,3.9-1,3.4,7.5c.9-.1,1.8-.3,2.7-.4l1.4-8.1h4l1.4,8.1c.9,0,1.8.2,2.7.4l3.4-7.5,3.9,1-.8,8.2c.9.3,1.7.7,2.5,1l5.2-6.4,3.5,2-2.9,7.8c.7.5,1.4,1.1,2.1,1.6l6.7-4.8,2.8,2.8-4.1,5.7h-56.9.1ZM140.1,361.5h52.1l3.9-5.5-.5-.5-6.6,4.7c-1.4-1.2-2.8-2.4-4.4-3.4l2.9-7.6-.6-.3-5.2,6.3c-1.6-.8-3.4-1.6-5.1-2.1l.8-8.1-.6-.2-3.4,7.4c-1.8-.4-3.7-.6-5.5-.7l-1.4-8h-.7l-1.3,8c-1.9.1-3.7.3-5.5.7l-3.4-7.4-.6.2.8,8.1c-1.8.6-3.5,1.3-5.1,2.1l-5.2-6.3-.6.3,2.9,7.6c-1.6,1-3,2.1-4.4,3.4l-6.6-4.7-.5.5,3.9,5.5h-.1ZM149.8,361.5c4-2.7,8.5-4.4,13.3-4.9v4.9h-13.3ZM182.4,361.5h-13.3v-4.9c4.9.5,9.4,2.2,13.3,4.9h0ZM153.7,361.5h7.4v-2.5c-2.6.5-5.1,1.3-7.4,2.5h0ZM178.5,361.5c-2.3-1.2-4.8-2.1-7.4-2.5v2.5h7.4ZM358.9,1.5h-1.2l1.5,3.3c-2.1,1.8-4,3.7-5.8,5.8l-9.4-4.3-1.6,2.3,7,7.6c-1.5,2.3-2.7,4.8-3.7,7.3l-10.2-1.2-.9,2.7,9,5c-.7,2.7-1.1,5.4-1.3,8.1l-10.1,2v2.8l10.1,2c.2,2.8.6,5.5,1.3,8.1l-9,5,.9,2.7,10.2-1.2c1,2.5,2.3,5,3.7,7.3l-7,7.6,1.6,2.3,9.4-4.3c1.8,2.1,3.7,4,5.8,5.8l-4.3,9.4,2.3,1.7,3-2.7v2.7l-2.8,2.6-4.9-3.5,4.4-9.5c-1.4-1.2-2.7-2.6-4-3.9l-9.5,4.4-3.5-4.8,7.1-7.7c-.9-1.6-1.8-3.3-2.5-5l-10.4,1.2-1.9-5.7,9.1-5.1c-.4-1.8-.7-3.7-.9-5.5l-10.2-2.1v-6l10.2-2c.2-1.9.5-3.7.9-5.5l-9.1-5.1,1.9-5.7,10.4,1.2c.8-1.7,1.6-3.4,2.5-5l-7.1-7.7,3.5-4.8,9.5,4.4c1.2-1.4,2.6-2.7,4-4l-1.3-2.7h3.4v-.3h-.1ZM360.1,54.2l-6.5,3.7c-2.3-5.2-3.5-10.8-3.5-16.4s1.2-11.3,3.5-16.4l6.5,3.7v25.4ZM360.1,15v4.5l-2.5-1.4c.8-1.1,1.6-2.1,2.5-3.1ZM360.1,68c-.9-1-1.7-2-2.5-3.1l2.5-1.4v4.5ZM360.1,51.9v-20.8l-5.5-3.2c-3.3,8.7-3.3,18.4,0,27.1l5.5-3.2h0v.1ZM62.5,361.5h2.2l3.1-6.8-4.8-3.5-7.7,7.1c-1.6-.9-3.3-1.8-5-2.5l1.2-10.4-5.7-1.9-5.1,9.1c-1.8-.4-3.7-.7-5.5-.9l-2.1-10.2h-6l-2,10.2c-1.9.2-3.7.5-5.5.9l-5.1-9.1-5.7,1.9,1.2,10.4c-1.7.8-3.4,1.6-5,2.5l-4.8-4.5v5.2-2.5l4.6,4.3c2.3-1.5,4.8-2.7,7.3-3.7l-1.2-10.2,2.7-.9,5,9c2.7-.7,5.4-1.1,8.1-1.3l2-10.1h2.8l2,10.1c2.8.2,5.5.6,8.1,1.3l5-9,2.7.9-1.2,10.2c2.5,1,5,2.3,7.3,3.7l7.6-7,2.3,1.6-2.8,6.1h0ZM360.1,246l-1.4-.2-.8,1.4,2,2.5.2.2v-3.9h0ZM360.1,260.5l-4-.4-3.2.7-.3,1.6,2.8,1.7,4.7,1.2v-4.7h0v-.1ZM360.1,273.8l-4.7,1.2-2.7,1.7.3,1.6,3.2.7,4-.4v-4.8h-.1ZM360.1,289.1l-.2.2-2,2.5.8,1.4,1.4-.2v-3.9h0ZM360.1,294.9l-2.6.4-2-3.5,3.3-4.2,1.2-.9v8.2h.1ZM360.1,280.5l-3.6.4-5.3-1.1-.7-3.9,4.6-2.8,5-1.3v8.8h0v-.1ZM360.1,267.3l-5-1.3-4.6-2.8.7-3.9,5.3-1.1,3.6.4v8.8h0v-.1ZM360.1,252.3l-1.2-.9-3.3-4.2,2-3.5,2.6.4v8.2h-.1ZM360.1,353.8v7.7h-4.6l-3.1-6.8,4.9-3.5,2.8,2.6h0ZM360.1,356.5l-3-2.7-2.3,1.6,2.8,6.1h2.4v-5h.1Z"/>
</svg>